<?xml version="1.0" standalone="no"?><!DOCTYPE svg PUBLIC "-//W3C//DTD SVG 1.1//EN" "http://www.w3.org/Graphics/SVG/1.1/DTD/svg11.dtd"><svg t="1592644376850" class="icon" viewBox="0 0 1024 1024" version="1.1" xmlns="http://www.w3.org/2000/svg" p-id="11862" width="48" height="48" xmlns:xlink="http://www.w3.org/1999/xlink"><defs><style type="text/css"></style></defs><path d="M946.7 507.4c-0.1-13.9-5.9-27.4-16-37.2-37.9-36.6-158.3-149.1-368-344l-12.2-11.3c-4.2-3.9-6.8-6.3-7.4-6.9-7.9-7.8-18.8-11.7-32.5-11.7-12.5 0-23.2 4.1-30.7 11.5l-390.3 362c-14.2 13.1-20.4 32.9-16.1 51.6 4.2 18.4 8.9 30.3 14.7 37.6 12.8 16 29.4 25.2 45.6 25.2h49.7c7 0 12.7 5.7 12.7 12.7v240.2c0 57.8 41.7 84.1 80.5 84.1 1.9 0 80.9-0.1 119-0.2 21.5 0 39-17.5 39-38.9V642.9c0-7 5.7-12.7 12.7-12.7h101.3c7 0 12.7 5.7 12.7 12.7 0.1 46.9 0 182.5-0.1 239.6 0 21.3 17.3 38.6 38.6 38.6H714c29.4 0 54.1-13.8 71.5-40 9.3-14 14.2-30 15.7-35.4 0.3-1.1 0.5-2.2 0.5-3.3l1.4-247.2c0-7 5.7-12.6 12.7-12.6h72.6c22.3 0 40.7-10.1 51.6-28.4 4.2-6.8 6.9-17.3 6.7-46.8zM714.1 883.7H600c-0.7 0-1.3-0.6-1.3-1.3 0.1-54.4 0.2-249.6 0-256.9-0.4-11.4-8.8-32.8-27.5-32.8H425.7c-14.9 0-28.4 15.6-28.4 32.8V882c0 0.9-0.7 1.6-1.6 1.6-38 0.1-117 0.2-118.9 0.2-12.9 0-43.1-4.6-43.1-46.7V559.5c0-7-5.7-12.7-12.7-12.7h-87.1c-3.6 0-10.3-3.5-16.4-11.2-0.1-0.2-3.3-4.5-7.3-22.3-1.3-5.7 0.6-11.8 5-15.9l391-362.7c0.6-0.6 2.4-1 4.6-1h0.1c3.2 0 6.2 1.2 8.5 3.4 2.5 2.3 7.5 7 17.9 16.6 201.3 186.8 328.4 305.6 367.5 343.5 2.8 2.7 4.6 6.7 4.6 10.6 0.1 12.8-0.4 20.1-0.9 23.9-0.3 2.7-1.5 5.2-3.4 7.2-4.1 4.2-9.5 6.2-16.4 6.2H778.6c-7 0-12.7 5.7-12.7 12.7l-0.9 277c0 1.3-0.2 2.6-0.6 3.8-1.5 4.7-4.9 14-10 21.8-10.3 15.5-23.8 23.3-40.3 23.3z" fill="#000000" p-id="11863"></path></svg>