<?xml version="1.0" standalone="no"?><!DOCTYPE svg PUBLIC "-//W3C//DTD SVG 1.1//EN" "http://www.w3.org/Graphics/SVG/1.1/DTD/svg11.dtd"><svg t="1592644299367" class="icon" viewBox="0 0 1024 1024" version="1.1" xmlns="http://www.w3.org/2000/svg" p-id="11149" width="48" height="48" xmlns:xlink="http://www.w3.org/1999/xlink"><defs><style type="text/css"></style></defs><path d="M493.60896 148.70528c91.77088 0 166.44096 75.79648 166.44096 168.96s-74.67008 168.96-166.44096 168.96-166.44096-75.79648-166.44096-168.96S401.83808 148.70528 493.60896 148.70528L493.60896 148.70528zM581.2224 601.00608c122.5728 0 222.28992 101.13024 222.3104 225.44384l0 16.15872c0 4.68992-0.83968 6.0416-3.97312 8.51968-4.05504 3.21536-14.52032 9.33888-38.97344 14.2336-44.68736 8.92928-110.10048 8.92928-179.34336 8.92928l-159.31392 0c-70.73792 0-137.5232 0-181.41184-8.9088-23.51104-4.77184-33.34144-10.67008-37.13024-13.78304-2.4576-2.00704-3.72736-3.31776-3.72736-8.99072l0-16.15872c0-124.3136 99.71712-225.44384 222.26944-225.44384L581.2224 601.00608 581.2224 601.00608zM493.60896 101.888c-117.248 0-212.64384 96.80896-212.64384 215.7568 0 118.94784 95.39584 215.7568 212.64384 215.7568 117.248 0 212.64384-96.78848 212.64384-215.7568C706.2528 198.67648 610.85696 101.888 493.60896 101.888L493.60896 101.888M581.2224 554.20928l-159.31392 0c-148.0704 0-268.4928 122.12224-268.4928 272.24064l0 16.15872c0 78.49984 118.49728 78.49984 268.4928 78.49984l159.31392 0c144.09728 0 268.51328 0 268.51328-78.49984l0-16.15872C849.73568 676.352 729.2928 554.20928 581.2224 554.20928L581.2224 554.20928" p-id="11150" fill="#FF6A7C"></path></svg>