<?xml version="1.0" standalone="no"?><!DOCTYPE svg PUBLIC "-//W3C//DTD SVG 1.1//EN" "http://www.w3.org/Graphics/SVG/1.1/DTD/svg11.dtd"><svg t="1592644433865" class="icon" viewBox="0 0 1024 1024" version="1.1" xmlns="http://www.w3.org/2000/svg" p-id="12290" width="48" height="48" xmlns:xlink="http://www.w3.org/1999/xlink"><defs><style type="text/css"></style></defs><path d="M909.613298 261.164115c-14.4542-20.018939-38.882566-32.066323-65.200978-32.066323H370.338095c-10.166547 0-18.443048 8.259104-18.443048 18.417465 0 10.16757 8.276501 18.434861 18.443048 18.434861h473.987244c14.540158 0 27.699875 6.27389 35.277458 16.72901 7.1744 9.965979 8.574283 22.311145 3.988848 35.863812L826.877969 488.560148c-4.094248 11.549034-19.24839 49.399083-44.359301 49.399084H309.023634l-46.143946-345.616552c-2.904143-22.014386-21.942755-38.549991-44.166919-38.549991h-100.775195c-10.166547 0-18.443048 8.268314-18.443047 18.425651 0 10.16757 8.276501 18.426675 18.443047 18.426675h100.775195c3.780093 0 7.070023 2.88777 7.576559 6.579859l58.917878 441.219956c6.282077 37.570687 31.585369 61.770855 64.588017 61.770856h463.715297c10.16757 0 18.443048-8.259104 18.443047-18.426675s-8.276501-18.425651-18.443047-18.425651H349.795223c-21.330818 0-27.01733-23.711028-28.103058-30.378891l-7.786337-58.174958h468.613864c33.895995 0 62.698994-26.982538 79.338976-74.395384L918.676721 330.196351c8.277524-24.804942 5.091972-49.312102-9.063423-69.032236zM423.359682 724.922391c-40.177048 0-72.864518 32.652677-72.864518 72.793909 0 40.143279 32.68747 72.830749 72.864518 72.830749s72.864518-32.68747 72.864518-72.830749c0-40.140209-32.688493-72.79391-72.864518-72.793909z m0 108.666931c-19.843954 0-35.977399-16.133446-35.977399-35.960003s16.133446-35.960003 35.977399-35.960003 35.994796 16.133446 35.994796 35.960003-16.151865 35.960003-35.994796 35.960003z m316.498374-108.666931c-40.177048 0-72.864518 32.652677-72.864518 72.793909 0 40.143279 32.68747 72.830749 72.864518 72.830749 40.160675 0 72.864518-32.68747 72.864518-72.830749 0-40.140209-32.703843-72.79391-72.864518-72.793909z m0 108.666931c-19.843954 0-35.994796-16.133446-35.994795-35.960003s16.150842-35.960003 35.994795-35.960003c19.825534 0 35.977399 16.133446 35.9774 35.960003s-16.151865 35.960003-35.9774 35.960003z" p-id="12291" fill="#000000"></path></svg>